<svg width="16" height="16" viewBox="0 0 16 16" fill="none" xmlns="http://www.w3.org/2000/svg">
<path d="M13.879 2.25786C13.6709 2.25907 13.4717 2.34262 13.325 2.49028C13.325 2.49028 10.0305 5.77838 8.02983 7.77773L6.61984 6.36774C6.31262 6.06131 5.81535 6.06131 5.50812 6.36774C5.20169 6.67497 5.20169 7.17224 5.50812 7.47947L7.47591 9.44725C7.78315 9.75366 8.28039 9.75366 8.58763 9.44725C10.4491 7.58644 14.4368 3.602 14.4368 3.602C14.7432 3.29477 14.7432 2.7975 14.4368 2.49028C14.2892 2.34169 14.0884 2.25804 13.879 2.25786Z" fill="#2F2F2F"/>
<path d="M7.6312 1.62976C4.16284 1.62979 1.33325 4.45627 1.33325 7.92466C1.33325 11.393 4.16284 14.2226 7.6312 14.2226C10.4774 14.2226 12.9762 12.3045 13.7129 9.55523C13.8553 9.02373 13.926 8.47492 13.9261 7.92466C13.9261 7.49033 13.5743 7.1381 13.14 7.13753C12.7057 7.1381 12.3539 7.49033 12.3539 7.92466C12.3539 8.33737 12.2978 8.7497 12.1909 9.14835C11.6367 11.2167 9.77251 12.6504 7.6312 12.6504C5.01362 12.6504 2.90543 10.5422 2.90543 7.92466C2.90543 5.30707 5.01361 3.20196 7.6312 3.20196C8.04397 3.20199 8.45315 3.25821 8.85184 3.36489C9.27172 3.47747 9.70336 3.22837 9.81596 2.80848C9.81606 2.80812 9.81615 2.80773 9.81626 2.80736C9.92883 2.38747 9.67971 1.95584 9.25984 1.84326C9.25946 1.84317 9.2591 1.84305 9.25872 1.84296C8.72713 1.70054 8.18156 1.62979 7.6312 1.62976Z" fill="#2F2F2F"/>
</svg>
