<svg fill="#2F2F2F" id="Line" enable-background="new 0 0 32 32" height="32" viewBox="0 0 32 32" width="32" xmlns="http://www.w3.org/2000/svg"><path d="m5 9c0 2.757 2.243 5 5 5s5-2.243 5-5-2.243-5-5-5-5 2.243-5 5zm8 0c0 1.654-1.346 3-3 3s-3-1.346-3-3 1.346-3 3-3 3 1.346 3 3z"/><path d="m10 15c-4.411 0-8 3.589-8 8v3c0 .552.448 1 1 1h14c.552 0 1-.448 1-1v-3c0-4.411-3.589-8-8-8zm6 10h-12v-2c0-3.309 2.691-6 6-6s6 2.691 6 6z"/><path d="m17 9c0 2.757 2.243 5 5 5s5-2.243 5-5-2.243-5-5-5-5 2.243-5 5zm8 0c0 1.654-1.346 3-3 3s-3-1.346-3-3 1.346-3 3-3 3 1.346 3 3z"/><path d="m30 23v3c0 .552-.448 1-1 1h-8c-.552 0-1-.448-1-1s.448-1 1-1h7v-2c0-3.309-2.691-6-6-6-.9 0-1.765.194-2.571.577-.498.238-1.095.025-1.332-.475-.237-.499-.024-1.095.475-1.332 1.076-.511 2.229-.77 3.428-.77 4.411 0 8 3.589 8 8z"/></svg>