<svg width="24" height="24" viewBox="0 0 24 24" fill="none" xmlns="http://www.w3.org/2000/svg">
<path d="M21.6774 17.1936H20.3871V7.35486C20.3868 7.05552 20.2677 6.76854 20.056 6.55688C19.8444 6.34522 19.5574 6.22616 19.2581 6.22583H17.1613C17.1098 6.22583 17.059 6.23828 17.0133 6.26212C16.5832 5.29139 15.8805 4.4664 14.9906 3.88732C14.1007 3.30825 13.0617 3 12 3C10.9383 3 9.89934 3.30825 9.0094 3.88732C8.11947 4.4664 7.41679 5.29139 6.98669 6.26212C6.94101 6.23828 6.89024 6.22583 6.83871 6.22583H4.74194C4.4426 6.22616 4.15562 6.34522 3.94395 6.55688C3.73229 6.76854 3.61323 7.05552 3.6129 7.35486V17.1936H2.32258C2.23703 17.1936 2.15498 17.2276 2.09448 17.2881C2.03399 17.3485 2 17.4306 2 17.5162V19.2903C2.00033 19.5897 2.11939 19.8767 2.33105 20.0883C2.54271 20.3 2.8297 20.419 3.12903 20.4194H20.871C21.1703 20.419 21.4573 20.3 21.6689 20.0883C21.8806 19.8767 21.9997 19.5897 22 19.2903V17.5162C22 17.4306 21.966 17.3485 21.9055 17.2881C21.845 17.2276 21.763 17.1936 21.6774 17.1936ZM12 3.64518C12.957 3.64518 13.8925 3.92897 14.6882 4.46065C15.484 4.99234 16.1042 5.74804 16.4704 6.6322C16.8366 7.51636 16.9324 8.48926 16.7457 9.42788C16.559 10.3665 16.0982 11.2287 15.4215 11.9054C14.7448 12.5821 13.8826 13.0429 12.944 13.2296C12.0054 13.4163 11.0325 13.3205 10.1483 12.9543C9.26415 12.588 8.50844 11.9679 7.97676 11.1721C7.44508 10.3764 7.16129 9.4409 7.16129 8.48389C7.16272 7.20103 7.67297 5.97111 8.58009 5.06399C9.48722 4.15686 10.7171 3.64661 12 3.64518ZM12 13.9678C15.0238 13.9678 17.4839 11.5077 17.4839 8.48389C17.4838 8.26827 17.471 8.05285 17.4456 7.83873H18.7742V16.2258H5.22581V7.83873H6.55444C6.52903 8.05285 6.51624 8.26827 6.51613 8.48389C6.51613 11.5077 8.97621 13.9678 12 13.9678ZM4.25806 7.35486C4.25817 7.22656 4.30918 7.10355 4.3999 7.01283C4.49063 6.92211 4.61364 6.8711 4.74194 6.87099H6.75847C6.7254 6.97704 6.69637 7.0847 6.66976 7.19357H4.90323C4.81767 7.19357 4.73562 7.22756 4.67513 7.28805C4.61463 7.34855 4.58065 7.4306 4.58065 7.51615V16.5484C4.58065 16.634 4.61463 16.716 4.67513 16.7765C4.73562 16.837 4.81767 16.871 4.90323 16.871H19.0968C19.1823 16.871 19.2644 16.837 19.3249 16.7765C19.3854 16.716 19.4194 16.634 19.4194 16.5484V7.51615C19.4194 7.4306 19.3854 7.34855 19.3249 7.28805C19.2644 7.22756 19.1823 7.19357 19.0968 7.19357H17.3302C17.3036 7.0847 17.2746 6.97704 17.2415 6.87099H19.2581C19.3864 6.8711 19.5094 6.92211 19.6001 7.01283C19.6908 7.10355 19.7418 7.22656 19.7419 7.35486V17.1936H4.25806V7.35486ZM13.8105 17.8387L13.7028 18.1613H10.2972L10.1895 17.8387H13.8105ZM21.3548 19.2903C21.3547 19.4186 21.3037 19.5417 21.213 19.6324C21.1223 19.7231 20.9993 19.7741 20.871 19.7742H3.12903C3.00073 19.7741 2.87772 19.7231 2.787 19.6324C2.69628 19.5417 2.64527 19.4186 2.64516 19.2903V17.8387H9.50927L9.75847 18.5859C9.77988 18.6501 9.82096 18.706 9.87589 18.7456C9.93082 18.7852 9.99681 18.8065 10.0645 18.8065H13.9355C14.0032 18.8065 14.0692 18.7852 14.1241 18.7456C14.179 18.706 14.2201 18.6501 14.2415 18.5859L14.4907 17.8387H21.3548V19.2903Z" fill="#2F2F2F"/>
<path d="M12 12.6774C12.8294 12.6774 13.6402 12.4315 14.3298 11.9707C15.0194 11.5099 15.5569 10.855 15.8743 10.0887C16.1917 9.32242 16.2748 8.47924 16.113 7.66577C15.9512 6.8523 15.5518 6.10509 14.9653 5.51861C14.3788 4.93213 13.6316 4.53273 12.8181 4.37092C12.0047 4.20911 11.1615 4.29216 10.3952 4.60956C9.62893 4.92696 8.97398 5.46446 8.51319 6.15408C8.0524 6.84371 7.80645 7.65449 7.80645 8.48389C7.80771 9.59571 8.24993 10.6616 9.0361 11.4478C9.82227 12.234 10.8882 12.6762 12 12.6774ZM9.27439 6.2145L9.49089 6.43103C9.52084 6.46099 9.55641 6.48475 9.59555 6.50097C9.63469 6.51718 9.67665 6.52552 9.71901 6.52552C9.76138 6.52552 9.80333 6.51718 9.84247 6.50097C9.88161 6.48475 9.91718 6.46099 9.94714 6.43103C9.97709 6.40107 10.0009 6.36551 10.0171 6.32637C10.0333 6.28722 10.0416 6.24527 10.0416 6.20291C10.0416 6.16054 10.0333 6.11859 10.0171 6.07945C10.0009 6.0403 9.97709 6.00474 9.94714 5.97478L9.7306 5.75829C10.2822 5.29712 10.9614 5.01525 11.6774 4.95035V5.25809C11.6774 5.34364 11.7114 5.42569 11.7719 5.48619C11.8324 5.54668 11.9144 5.58067 12 5.58067C12.0856 5.58067 12.1676 5.54668 12.2281 5.48619C12.2886 5.42569 12.3226 5.34364 12.3226 5.25809V4.95035C13.0386 5.01525 13.7178 5.29712 14.2694 5.75829L14.0529 5.97478C13.9924 6.03528 13.9584 6.11734 13.9584 6.20291C13.9584 6.28847 13.9924 6.37053 14.0529 6.43103C14.1134 6.49153 14.1954 6.52552 14.281 6.52552C14.3666 6.52552 14.4486 6.49153 14.5091 6.43103L14.7256 6.2145C15.1868 6.76609 15.4686 7.44527 15.5336 8.16131H15.2258C15.1403 8.16131 15.0582 8.1953 14.9977 8.25579C14.9372 8.31629 14.9032 8.39834 14.9032 8.48389C14.9032 8.56945 14.9372 8.6515 14.9977 8.71199C15.0582 8.77249 15.1403 8.80647 15.2258 8.80647H15.5336C15.4687 9.52249 15.1869 10.2017 14.7258 10.7533L14.5093 10.5368C14.4794 10.5068 14.4438 10.483 14.4046 10.4668C14.3655 10.4506 14.3236 10.4423 14.2812 10.4423C14.2388 10.4423 14.1969 10.4506 14.1577 10.4668C14.1186 10.483 14.083 10.5068 14.0531 10.5368C14.0231 10.5667 13.9993 10.6023 13.9831 10.6414C13.9669 10.6806 13.9586 10.7225 13.9586 10.7649C13.9586 10.8072 13.9669 10.8492 13.9831 10.8883C13.9993 10.9275 14.0231 10.963 14.0531 10.993L14.2696 11.2095C13.718 11.6707 13.0387 11.9526 12.3226 12.0174V11.7097C12.3226 11.6241 12.2886 11.5421 12.2281 11.4816C12.1676 11.4211 12.0856 11.3871 12 11.3871C11.9144 11.3871 11.8324 11.4211 11.7719 11.4816C11.7114 11.5421 11.6774 11.6241 11.6774 11.7097V12.0174C10.9614 11.9526 10.2822 11.6708 9.7306 11.2097L9.94714 10.9932C10.0076 10.9327 10.0416 10.8506 10.0416 10.7651C10.0416 10.6795 10.0076 10.5975 9.94714 10.537C9.88663 10.4765 9.80458 10.4425 9.71901 10.4425C9.63345 10.4425 9.55139 10.4765 9.49089 10.537L9.27439 10.7535C8.81319 10.2018 8.53131 9.52258 8.46641 8.80647H8.77419C8.85975 8.80647 8.9418 8.77249 9.00229 8.71199C9.06279 8.6515 9.09677 8.56945 9.09677 8.48389C9.09677 8.39834 9.06279 8.31629 9.00229 8.25579C8.9418 8.1953 8.85975 8.16131 8.77419 8.16131H8.46641C8.53135 7.44527 8.81323 6.76609 9.27439 6.2145Z" fill="#2F2F2F"/>
<path d="M12 8.80647H12.9677C13.0533 8.80647 13.1353 8.77249 13.1958 8.71199C13.2563 8.6515 13.2903 8.56945 13.2903 8.48389C13.2903 8.39834 13.2563 8.31629 13.1958 8.25579C13.1353 8.1953 13.0533 8.16131 12.9677 8.16131H12.3226V6.54841C12.3226 6.46286 12.2886 6.38081 12.2281 6.32031C12.1676 6.25982 12.0856 6.22583 12 6.22583C11.9144 6.22583 11.8324 6.25982 11.7719 6.32031C11.7114 6.38081 11.6774 6.46286 11.6774 6.54841V8.48389C11.6774 8.56945 11.7114 8.6515 11.7719 8.71199C11.8324 8.77249 11.9144 8.80647 12 8.80647Z" fill="#2F2F2F"/>
</svg>
