<svg width="27" height="27" viewBox="0 0 27 27" fill="none" xmlns="http://www.w3.org/2000/svg">
<path d="M23.1331 8.9257C22.348 7.54524 21.253 6.35283 19.9483 5.44918C20.0275 5.29305 20.0663 5.18261 20.0741 5.15923C20.174 4.85983 20.0477 4.53165 19.7728 4.37652C18.3627 3.58063 16.5877 3.37624 14.6008 3.77289V2.86731C14.6008 2.50327 14.3057 2.20813 13.9416 2.20813C13.5776 2.20813 13.2825 2.50327 13.2825 2.86731V3.77289C11.2955 3.37624 9.52058 3.58067 8.1105 4.37652C7.83567 4.53165 7.70933 4.85983 7.80921 5.15923C7.81704 5.18261 7.8558 5.293 7.93498 5.44901C6.63636 6.34844 5.54568 7.53377 4.76121 8.90649C3.85436 10.4933 3.375 12.3036 3.375 14.1415C3.375 16.964 4.47412 19.6175 6.46989 21.6132C8.46567 23.609 11.1192 24.7081 13.9416 24.7081C16.7641 24.7081 19.4176 23.609 21.4134 21.6132C23.4091 19.6175 24.5083 16.9639 24.5083 14.1415C24.5083 12.3113 24.0328 10.5077 23.1331 8.9257ZM13.7665 5.2422C13.8811 5.2738 14.0022 5.2738 14.1168 5.2422C15.8007 4.77818 17.3042 4.77906 18.5124 5.2382C18.2779 5.49511 17.8912 5.75232 17.2833 5.75232C16.9656 5.75232 16.6934 5.97679 16.6356 6.28929C16.5929 6.51112 16.4144 7.11071 16.0667 7.52252C15.7447 7.50209 15.0806 7.37465 14.3913 6.73164C14.1381 6.49543 13.7453 6.49543 13.492 6.73164C12.8026 7.37469 12.1386 7.50209 11.8165 7.52252C11.4689 7.11076 11.2904 6.51139 11.2481 6.29153C11.1902 5.97908 10.9176 5.75232 10.5999 5.75232C9.99198 5.75232 9.60539 5.49511 9.37081 5.2382C10.5792 4.77902 12.0827 4.77818 13.7665 5.2422ZM17.8538 10.2293C17.9826 10.358 18.1513 10.4223 18.3199 10.4223C18.4886 10.4223 18.6573 10.358 18.786 10.2292L19.055 9.9603C19.8677 10.9556 20.3871 12.1784 20.5191 13.4823H20.1335C19.7694 13.4823 19.4743 13.7774 19.4743 14.1414C19.4743 14.5055 19.7694 14.8006 20.1335 14.8006H20.5204C20.3882 16.1299 19.8606 17.3445 19.0574 18.3249L15.7878 15.0554C15.9248 14.7797 16.0022 14.4695 16.0022 14.1414C16.0022 13.2356 15.4146 12.4651 14.6008 12.1895V8.46084C15.5878 8.93537 16.3917 8.83539 16.4371 8.82924C16.5658 8.81162 16.6864 8.75642 16.7839 8.67051C16.9018 8.56653 17.0076 8.45386 17.1038 8.33687C17.4679 8.53612 17.8093 8.76719 18.1246 9.02611L17.8538 9.29695C17.5964 9.55451 17.5964 9.97186 17.8538 10.2293ZM13.9416 19.6741C13.5776 19.6741 13.2825 19.9692 13.2825 20.3333V20.7202C11.9532 20.588 10.7386 20.0605 9.75814 19.2572L10.0295 18.9858C10.2869 18.7284 10.2869 18.3111 10.0295 18.0536C9.77207 17.7962 9.35468 17.7962 9.09725 18.0536L8.82589 18.325C8.02257 17.3445 7.495 16.1299 7.36282 14.8007H7.7498C8.11384 14.8007 8.40898 14.5055 8.40898 14.1415C8.40898 13.7774 8.11384 13.4823 7.7498 13.4823H7.36409C7.4961 12.1781 8.01536 10.9554 8.82809 9.96017L9.09725 10.2293C9.22597 10.3581 9.39467 10.4224 9.56333 10.4224C9.732 10.4224 9.90075 10.3581 10.0294 10.2293C10.2869 9.9719 10.2869 9.55456 10.0294 9.29712L9.75858 9.02629C10.0739 8.76741 10.4152 8.53621 10.7794 8.33696C10.8755 8.45395 10.9814 8.56667 11.0994 8.67068C11.1968 8.7566 11.3174 8.81179 11.4461 8.82941C11.4602 8.83135 11.5478 8.84242 11.6917 8.84242C12.0099 8.84242 12.6027 8.78793 13.2824 8.4612V12.1896C12.4686 12.4653 11.8809 13.2358 11.8809 14.1416C11.8809 15.2778 12.8054 16.2022 13.9416 16.2022C14.2697 16.2022 14.58 16.1247 14.8556 15.9877L18.1252 19.2573C17.1446 20.0606 15.9301 20.5882 14.6008 20.7203V20.3334C14.6008 19.9692 14.3057 19.6741 13.9416 19.6741ZM13.9416 14.8838C13.5323 14.8838 13.1993 14.5508 13.1993 14.1415C13.1993 13.7322 13.5323 13.3992 13.9416 13.3992C14.351 13.3992 14.6839 13.7322 14.6839 14.1415C14.6839 14.5508 14.351 14.8838 13.9416 14.8838ZM13.9416 23.3898C8.84215 23.3898 4.69336 19.241 4.69336 14.1415C4.69336 12.5326 5.11264 10.9486 5.90581 9.56058C6.61082 8.3269 7.59832 7.2661 8.77531 6.47135C9.09615 6.71956 9.52616 6.9435 10.0844 7.03135C10.1004 7.08008 10.1185 7.13172 10.138 7.1848C7.6144 8.56974 6.01172 11.2429 6.01172 14.1415C6.01172 18.5141 9.56909 22.0714 13.9416 22.0714C18.3142 22.0714 21.8716 18.5141 21.8716 14.1415C21.8716 12.5999 21.4268 11.1041 20.5853 9.81572C19.8657 8.71388 18.8908 7.81274 17.7453 7.18476C17.7648 7.13167 17.7829 7.08004 17.7989 7.03135C18.3572 6.9435 18.7873 6.71951 19.1082 6.47122C20.2905 7.26962 21.2817 8.33701 21.9871 9.57745C22.774 10.9612 23.1899 12.5394 23.1899 14.1415C23.1899 19.241 19.0412 23.3898 13.9416 23.3898Z" fill="#F65252"/>
</svg>
