<svg xmlns="http://www.w3.org/2000/svg" viewBox="0 0 480 150" role="img" aria-label="Quiet forest artwork">
  <rect width="480" height="150" rx="22" fill="#DDEBDD"/>
  <circle cx="390" cy="28" r="48" fill="#CCE1CF"/>
  <g fill="#AFCDB5">
    <path d="m22 124 42-91 42 91z"/><path d="m72 128 35-76 35 76z"/>
    <path d="m331 126 40-87 40 87z"/><path d="m382 130 45-98 45 98z"/>
  </g>
  <g fill="#82AD8B">
    <path d="m116 132 49-108 49 108z"/><path d="m189 130 37-82 37 82z"/>
    <path d="m242 134 53-117 53 117z"/>
  </g>
  <path d="M0 124c104-15 154 10 244-4 81-13 142 7 236-12v42H0z" fill="#6F9978" opacity=".74"/>
</svg>
